<svg width="25" height="24" viewBox="0 0 25 24" fill="none" xmlns="http://www.w3.org/2000/svg">
<g clip-path="url(#clip0_705_787)">
<path d="M17 4H9C6.87827 4 4.84344 4.84285 3.34315 6.34315C1.84285 7.84344 1 9.87827 1 12C1 14.1217 1.84285 16.1566 3.34315 17.6569C4.84344 19.1571 6.87827 20 9 20H17C19.1217 20 21.1566 19.1571 22.6569 17.6569C24.1571 16.1566 25 14.1217 25 12C25 9.87827 24.1571 7.84344 22.6569 6.34315C21.1566 4.84285 19.1217 4 17 4ZM9 18C7.81331 18 6.65327 17.6481 5.66658 16.9888C4.67988 16.3295 3.91085 15.3925 3.45672 14.2961C3.0026 13.1997 2.88378 11.9933 3.11529 10.8295C3.3468 9.66557 3.91824 8.59647 4.75736 7.75736C5.59647 6.91824 6.66557 6.3468 7.82946 6.11529C8.99334 5.88378 10.1997 6.0026 11.2961 6.45672C12.3925 6.91085 13.3295 7.67988 13.9888 8.66658C14.6481 9.65327 15 10.8133 15 12C15 13.5913 14.3679 15.1174 13.2426 16.2426C12.1174 17.3679 10.5913 18 9 18Z" fill="#2D9CDB"/>
</g>
<path d="M9 18C12.3137 18 15 15.3137 15 12C15 8.68629 12.3137 6 9 6C5.68629 6 3 8.68629 3 12C3 15.3137 5.68629 18 9 18Z" fill="white"/>
<defs>
<clipPath id="clip0_705_787">
<rect width="24" height="24" fill="white" transform="translate(1)"/>
</clipPath>
</defs>
</svg>
